<?xml version="1.0" encoding="utf-8"?>
<!-- Generator: Adobe Illustrator 25.2.3, SVG Export Plug-In . SVG Version: 6.00 Build 0)  -->
<svg version="1.1" id="Layer_1" xmlns="http://www.w3.org/2000/svg" xmlns:xlink="http://www.w3.org/1999/xlink" x="0px" y="0px"
	 viewBox="0 0 48 48" style="enable-background:new 0 0 48 48;" xml:space="preserve">
<g>
	<path d="M4.6,9.55c1.65,0,3.23,0,4.85,0c0-0.18,0-0.33,0-0.49c0-1.9,0-3.8,0-5.7c0-1.22,0.6-1.96,1.6-1.96
		c0.85,0,1.68,0.7,1.64,1.94c-0.06,1.9-0.02,3.8-0.02,5.7c0,0.16,0,0.31,0,0.53c0.82,0,1.62,0,2.41,0c0.78,0,1.56,0,2.4,0
		c0.01-0.19,0.03-0.36,0.03-0.52c0-2,0-4,0-6.01c0-0.65,0.3-1.15,0.87-1.45c0.56-0.3,1.13-0.26,1.65,0.09
		c0.5,0.34,0.72,0.84,0.72,1.45c-0.01,2.13,0,4.27,0,6.4c0,1.55,0.01,3.1,0,4.66c-0.02,2.04-0.92,3.56-2.76,4.48
		c-0.29,0.15-0.39,0.3-0.37,0.62c0.3,4.88,0.58,9.76,0.87,14.64c0.21,3.53,0.42,7.07,0.62,10.6c0.02,0.3,0.03,0.62-0.05,0.9
		c-0.2,0.75-0.79,1.16-1.63,1.16c-4.25,0-8.5,0-12.75,0c-0.04,0-0.09,0-0.13,0c-0.94-0.04-1.61-0.75-1.55-1.68
		c0.16-2.85,0.32-5.71,0.49-8.56c0.16-2.72,0.33-5.44,0.49-8.17c0.17-2.81,0.33-5.62,0.5-8.43c0.01-0.22,0.05-0.44,0.02-0.65
		c-0.02-0.13-0.11-0.3-0.22-0.35c-2.02-0.98-2.92-2.61-2.91-4.83c0.02-3.63,0-7.25,0.01-10.88c0-0.81,0.53-1.45,1.32-1.61
		C3.4,1.29,4.16,1.67,4.46,2.38c0.1,0.23,0.13,0.51,0.13,0.76C4.6,5.11,4.6,7.09,4.6,9.06C4.6,9.22,4.6,9.37,4.6,9.55z M15.78,43.34
		c0.01-0.08,0.02-0.14,0.01-0.19c-0.18-3.01-0.35-6.02-0.53-9.03c-0.22-3.75-0.44-7.5-0.67-11.25c-0.1-1.64-0.16-3.27-0.3-4.91
		c-0.11-1.2,0.46-1.95,1.67-2.04c0.77-0.05,1.42-0.56,1.5-1.27c0.07-0.6,0.01-1.21,0.01-1.82c-4.3,0-8.58,0-12.88,0
		c0,0.44,0,0.84,0,1.25c0,1.16,0.58,1.78,1.73,1.85c0.88,0.05,1.57,0.81,1.52,1.68c-0.05,0.84-0.11,1.68-0.16,2.52
		c-0.22,3.71-0.44,7.41-0.66,11.12c-0.19,3.27-0.39,6.54-0.58,9.81c-0.04,0.76-0.08,1.52-0.12,2.28
		C9.51,43.34,12.64,43.34,15.78,43.34z"/>
	<path d="M29.54,32.51c0.22-3.72,0.39-7.45,0.67-11.16c0.08-1.06-0.15-1.82-0.87-2.62c-1.47-1.63-2.11-3.65-2.13-5.84
		c-0.02-1.49-0.07-2.98,0.35-4.45c1.24-4.31,5.34-7.28,9.75-7.02c4.64,0.27,8.45,3.55,9.11,8.06c0.35,2.39,0.36,4.8-0.64,7.1
		c-0.48,1.11-1.17,2.07-2.01,2.92c-0.2,0.2-0.29,0.4-0.27,0.69c0.26,4.2,0.51,8.4,0.75,12.6c0.19,3.21,0.37,6.43,0.56,9.64
		c0.04,0.77,0.09,1.53,0.15,2.3c0.08,1.13-0.59,1.87-1.72,1.87c-4.24,0.01-8.47,0.01-12.71,0c-1.13,0-1.78-0.76-1.71-1.88
		c0.2-3.24,0.39-6.49,0.58-9.73C29.44,34.16,29.49,33.34,29.54,32.51C29.54,32.51,29.54,32.51,29.54,32.51z M41.63,43.35
		c-0.08-1.47-0.16-2.9-0.24-4.33c-0.22-3.79-0.45-7.59-0.67-11.38c-0.16-2.71-0.31-5.41-0.49-8.12c-0.05-0.78,0.15-1.38,0.77-1.87
		c1.19-0.95,1.97-2.19,2.21-3.69c0.16-0.96,0.13-1.96,0.13-2.95c-0.01-3.18-2.47-5.97-5.55-6.32c-3.39-0.39-6.39,1.64-7.16,4.84
		c-0.32,1.33-0.26,2.69-0.12,4.02c0.18,1.69,0.99,3.07,2.32,4.14c0.57,0.46,0.81,1.03,0.73,1.75c-0.05,0.52-0.07,1.04-0.1,1.56
		c-0.22,3.78-0.45,7.56-0.67,11.33c-0.16,2.74-0.33,5.47-0.49,8.21c-0.05,0.92-0.1,1.84-0.15,2.78
		C35.33,43.35,38.44,43.35,41.63,43.35z"/>
</g>
</svg>
