<?xml version="1.0" encoding="utf-8"?>
<!-- Generator: Adobe Illustrator 25.2.3, SVG Export Plug-In . SVG Version: 6.00 Build 0)  -->
<svg version="1.1" id="Layer_1" xmlns="http://www.w3.org/2000/svg" xmlns:xlink="http://www.w3.org/1999/xlink" x="0px" y="0px"
	 viewBox="0 0 48 48" style="enable-background:new 0 0 48 48;" xml:space="preserve">
<path d="M26.1,26.7c0.61-1.06,1.2-2.07,1.77-3.1c0.49-0.89,1.21-1.33,2.24-1.31c1.27,0.03,2.54-0.01,3.81,0.05
	c1.08,0.05,1.85,0.96,1.85,2.04c0,1.08-0.79,1.96-1.87,2.03c-0.81,0.05-1.62,0.05-2.43,0.02c-0.34-0.01-0.53,0.1-0.7,0.4
	c-0.95,1.7-1.91,3.39-2.89,5.07c-0.69,1.2-2.2,1.44-3.19,0.53c-0.16-0.14-0.28-0.33-0.39-0.51c-1.85-3.21-3.69-6.42-5.54-9.62
	c-0.03-0.06-0.07-0.11-0.14-0.21c-0.17,0.29-0.33,0.55-0.48,0.81c-0.46,0.81-0.92,1.62-1.39,2.43c-0.44,0.77-1.1,1.16-1.99,1.16
	c-3.3,0-6.6,0-9.9,0c-0.98,0-1.65-0.42-2.11-1.29C-1.16,17.82,2.24,8.46,10.49,5.7c4.85-1.62,9.33-0.7,13.31,2.54
	c0.04,0.03,0.08,0.07,0.13,0.1c0.02,0.02,0.05,0.03,0.09,0.05c0.08-0.06,0.16-0.12,0.24-0.19c7.99-6.8,20.5-2.41,22.42,7.91
	c0.88,4.73-0.43,8.88-3.81,12.3c-5,5.04-10.05,10.04-15.08,15.04c-2.09,2.07-5.39,2.12-7.49,0.05c-3.72-3.66-7.41-7.36-11.1-11.05
	c-0.92-0.91-0.91-2.15-0.02-3.03c0.81-0.8,2.1-0.75,2.98,0.12c3.6,3.59,7.21,7.17,10.81,10.76c0.72,0.72,1.38,0.72,2.1,0
	c4.89-4.89,9.74-9.81,14.67-14.65c3.87-3.79,3.94-9.88,0.21-13.71c-1.91-1.96-4.26-2.9-7-2.86c-2.62,0.04-4.83,1.03-6.66,2.89
	c-0.25,0.25-0.5,0.5-0.75,0.75c-0.9,0.92-2.12,0.93-3.06,0.04c-0.63-0.59-1.22-1.24-1.91-1.76c-5.92-4.44-14.33-0.83-15.22,6.52
	c-0.18,1.52,0.02,2.99,0.52,4.43c0.08,0.24,0.21,0.33,0.47,0.33c2.33-0.01,4.65-0.01,6.98,0c0.27,0,0.41-0.1,0.53-0.33
	c0.98-1.71,1.97-3.42,2.96-5.12c0.72-1.23,2.25-1.47,3.25-0.5c0.12,0.12,0.23,0.27,0.32,0.42c1.84,3.2,3.67,6.4,5.5,9.6
	C25.94,26.47,26.01,26.56,26.1,26.7z"/>
</svg>
