<?xml version="1.0" encoding="utf-8"?>
<!-- Generator: Adobe Illustrator 25.2.3, SVG Export Plug-In . SVG Version: 6.00 Build 0)  -->
<svg version="1.1" id="Layer_1" xmlns="http://www.w3.org/2000/svg" xmlns:xlink="http://www.w3.org/1999/xlink" x="0px" y="0px"
	 viewBox="0 0 48 48" style="enable-background:new 0 0 48 48;" xml:space="preserve">
<path d="M14.12,18.04c0-0.23,0-0.4,0-0.58c0.02-1.51-0.03-3.03,0.09-4.53c0.36-4.35,4.12-8.19,8.46-8.74
	c5.5-0.7,10.27,2.71,11.33,8.14c0.12,0.62,0.14,1.26,0.15,1.89c0.02,1.25,0.01,2.5,0.01,3.81c0.59,0,1.15,0.02,1.7,0
	c2.67-0.13,4.65,1.97,4.63,4.62c-0.05,6-0.01,11.99-0.02,17.99c0,2.12-1.34,3.81-3.4,4.28c-0.39,0.09-0.81,0.11-1.21,0.11
	c-7.81,0.01-15.62,0.01-23.43,0c-2.37,0-4.07-1.33-4.52-3.51c-0.06-0.29-0.07-0.6-0.07-0.9c0-6.06-0.01-12.12,0-18.17
	c0-2.54,1.8-4.37,4.34-4.42C12.81,18.03,13.44,18.04,14.12,18.04z M14.12,21.25c-0.62,0-1.18,0-1.73,0
	c-0.95,0.01-1.34,0.41-1.34,1.36c0,5.95,0,11.9,0,17.86c0,0.95,0.4,1.34,1.36,1.34c7.83,0,15.65,0,23.48,0
	c0.97,0,1.35-0.38,1.35-1.33c0-5.18,0-10.36,0-15.54c0-0.86,0.01-1.72,0-2.58c-0.01-0.56-0.33-0.99-0.88-1.03
	c-0.71-0.06-1.44-0.01-2.2-0.01c0,1.93,0,3.84,0,5.76c-1.09,0-2.12,0-3.21,0c0-1.94,0-3.85,0-5.78c-4.55,0-9.04,0-13.58,0
	c0,1.94,0,3.85,0,5.77c-1.1,0-2.15,0-3.23,0C14.12,25.12,14.12,23.22,14.12,21.25z M17.28,18c4.65,0,9.14,0,13.59,0
	c0-1.67,0.16-3.31-0.03-4.92c-0.39-3.28-3.13-5.6-6.55-5.77c-3.07-0.15-6.09,2.07-6.69,5.2C17.26,14.29,17.37,16.15,17.28,18z"/>
</svg>
